<?xml version="1.0" encoding="utf-8"?>
<!-- Generator: Adobe Illustrator 19.0.0, SVG Export Plug-In . SVG Version: 6.00 Build 0)  -->
<svg version="1.1" id="图形" xmlns="http://www.w3.org/2000/svg" xmlns:xlink="http://www.w3.org/1999/xlink" x="0px" y="0px"
	 width="1000.6px" height="1000.7px" viewBox="135 -243.8 1000.6 1000.7" style="enable-background:new 135 -243.8 1000.6 1000.7;"
	 xml:space="preserve">
<style type="text/css">
	.st0{fill:#FFFFFF;}
</style>
<g>
	<path id="XMLID_15_" class="st0" d="M195.1,373h4.6c0,4.6,0,9.6,0,14.9h18.8c0,16.9-0.4,33.6-1.3,49.8c-0.2,7.7-3.9,11.7-10.9,11.9
		c-2.6,0-5.4,0-8.3,0c0-1.5-0.2-3.2-0.7-5c2.4,0,5.1,0,7.9,0c5.1,0.4,7.6-2,7.6-7.3c0-0.9,0-2.3,0-4.3c0.7-18.7,1-32.3,1-40.9h-14.5
		c0,1.8,0,3.3,0,4.6c-0.4,25.1-5.3,43.2-14.5,54.5c-1.3-1.1-2.8-2-4.3-2.6c9.2-11.2,14-28.6,14.2-52.1c0-1.3,0-2.7,0-4.3h-11.6v-4.3
		h12C195.1,382.8,195.1,377.9,195.1,373z M228.8,383.9h29.4v65.7h-4.6v-7.9h-20.1v7.9h-4.6L228.8,383.9L228.8,383.9z M233.4,388.2
		v49.2h20.1v-49.2H233.4z M346.5,397.8H362v-14.5c-4.6,0.2-9.2,0.6-13.9,1c-0.2-1.8-0.6-3.2-1-4.3c11-0.7,21.6-1.5,31.7-2.6l1.3,4.3
		c-1.5,0-3.9,0.2-6.9,0.7c-3.1,0.2-5.4,0.4-6.9,0.7V398h15.2v4h-15.2v11.6l2.3-2c2,1.5,4.7,4.1,8.3,7.6c2,1.8,3.4,3.1,4.3,4
		l-3.3,3.3c-3.7-4.2-7.6-8-11.6-11.6v36.3H362v-41.3c-3.3,9.5-8.1,18.2-14.5,26.1c-0.4-1.1-1.2-2.7-2.3-5c7.5-9,13-18.8,16.5-29.4
		h-15.2V397.8z M387.4,382.6h34.3v66.7h-4.6v-7.6h-25.4v7.6h-4.3L387.4,382.6L387.4,382.6z M391.8,386.9v50.8h25.4v-50.8H391.8z
		 M553.7,450.6h-4.6v-25.7H523c-0.4,9.2-3.6,18.3-9.6,27.1c-1.3-1.3-2.8-2.3-4.3-3c4.2-5.9,6.8-11.6,7.9-16.8c1.3-5.3,2-13.6,2-25.1
		v-29.5h65.3V441c0.2,6.4-3.2,9.6-10.2,9.6c-3.1,0.2-6.4,0.3-9.9,0.3c0-1.5-0.3-3.2-1-5c2.2,0.2,5.5,0.3,9.9,0.3
		c4.6,0.2,6.8-1.6,6.6-5.6v-15.8h-26.1L553.7,450.6L553.7,450.6z M523.7,407c0,2-0.1,4.6-0.3,7.9c0,2.6,0,4.5,0,5.6h25.7v-17.2
		h-25.4V407z M523.7,381.9v17.2h25.4v-17.2H523.7z M579.8,381.9h-26.1v17.2h26.1V381.9z M553.7,403.4v17.2h26.1v-17.2H553.7z
		 M709.2,374.3l4-2c2.4,3.5,4.8,7.2,7.3,10.9l-4,1.6h30v35H742v-4.2h-54.1c-0.2,14.7-3.9,26.7-10.9,36c-0.7-0.7-2-1.6-4-3
		c4.2-5.9,6.9-11.6,8.3-16.8c1.3-5.3,2-13.2,2-23.8v-23.1h32.3c-0.7-1.5-2.1-4.1-4.3-7.6C710.4,376,709.8,375,709.2,374.3z
		 M687.9,389.2V408v3.3H742v-22.1L687.9,389.2L687.9,389.2z M838.9,416.6c-0.4-0.9-1.1-2.2-2-4l-0.3-0.7c7.9-11,14.3-24,19.1-38.9
		l4.3,1c-2.2,7.3-4.8,14-7.9,20.1v57.5h-4.3v-48.8C845,408,842,412.6,838.9,416.6z M858.1,437.7c-0.2-0.4-1-1.1-2.3-2
		c-0.7-0.7-1.1-1.1-1.3-1.3c12.5-11.2,21.1-24.6,25.7-40.3h-20.1v-4h23.8v-17.2h4.6v17.2h25.4v4h-21.5c5.3,16.1,13.6,28.9,25.1,38.6
		c-0.9,0.7-2,1.9-3.3,3.6c-12.1-11-20.6-25.1-25.4-42.2h-0.3v36.3h13.9v4.3h-13.9v16.9h-4.6v-16.8h-13.5v-4.3h13.5v-36.3
		C879.2,411.7,870.6,426.3,858.1,437.7z M1001.2,433.4l-0.3-4.3c7-1.3,13.2-2.4,18.5-3.3c0,1.3,0,2.6,0,4
		C1013.6,430.9,1007.5,432.1,1001.2,433.4z M1010.4,386.9l-2,24.8h10.6l2.6-30.4h-18.8v-4h23.1l-2.3,34.3h4.9c0,5.7-0.3,14.6-1,26.7
		c0,1.1,0,1.9,0,2.3c-0.2,6.2-3.9,9.1-10.9,8.9c-2.2,0.2-5.1,0.3-8.6,0.3c0-0.2-0.1-0.7-0.3-1.3c0-1.3-0.2-2.4-0.7-3.3
		c1.8,0.2,4.7,0.3,8.9,0.3c4.8,0.2,7.3-1.6,7.3-5.6c0.2-3.1,0.4-9.6,0.7-19.5c0.2-2.2,0.3-3.8,0.3-5h-20.1l2.3-28.7h4V386.9z
		 M1078.3,404.4c-9.9-6.2-17.7-14.2-23.4-24.1c-5.3,9-13.1,17.4-23.4,25.1c-0.2-0.2-0.6-0.7-1-1.3c-0.9-1.3-1.5-2.2-2-2.6
		c11.9-7.9,20.6-17.7,26.1-29.4l4.6,1c-0.4,0.7-1,1.4-1.7,2.3c-0.2,0.7-0.4,1.1-0.7,1.3c6.8,10.6,15,18.4,24.4,23.4
		c0,0.2-0.2,0.4-0.7,0.7C1079.6,402.5,1078.8,403.7,1078.3,404.4z M1031.2,443h29c3.1-7.7,6.5-17.5,10.2-29.4l4.3,1.3
		c-2.9,9.2-6.3,18.6-10.2,28.1h14.8v4.3h-48.1V443z M1034.5,416.2l4-1c1.3,4.2,3.5,11.3,6.6,21.5l-4.3,1.3
		C1039,431.6,1036.8,424.4,1034.5,416.2z M1038.1,402.4h33v4.3h-33V402.4z M1050.2,413.9l4.3-1c0.2,0.9,0.5,2.2,1,4
		c2,7,3.3,12.3,4,15.8l-4,1C1054.1,426.7,1052.2,420.1,1050.2,413.9z M196.3,373h4.6c0,4.6,0,9.6,0,14.9h18.8
		c0,16.9-0.4,33.6-1.3,49.8c-0.2,7.7-3.9,11.7-10.9,11.9c-2.6,0-5.4,0-8.3,0c0-1.5-0.2-3.2-0.7-5c2.4,0,5.1,0,7.9,0
		c5.1,0.4,7.6-2,7.6-7.3c0-0.9,0-2.3,0-4.3c0.7-18.7,1-32.3,1-40.9h-14.5c0,1.8,0,3.3,0,4.6c-0.4,25.1-5.3,43.2-14.5,54.5
		c-1.3-1.1-2.8-2-4.3-2.6c9.2-11.2,14-28.6,14.2-52.1c0-1.3,0-2.7,0-4.3h-11.6v-4.3h11.9C196.3,382.8,196.3,377.9,196.3,373z
		 M230,383.9h29.4v65.7h-4.6v-7.9h-20.1v7.9h-4.6L230,383.9L230,383.9z M234.6,388.2v49.2h20.1v-49.2H234.6z M347.8,397.8h15.5
		v-14.5c-4.6,0.2-9.2,0.6-13.9,1c-0.2-1.8-0.6-3.2-1-4.3c11-0.7,21.6-1.5,31.7-2.6l1.3,4.3c-1.5,0-3.9,0.2-6.9,0.7
		c-3.1,0.2-5.4,0.4-6.9,0.7V398h15.2v4h-15.2v11.6l2.3-2c2,1.5,4.7,4.1,8.3,7.6c2,1.8,3.4,3.1,4.3,4l-3.3,3.3
		c-3.7-4.2-7.6-8-11.6-11.6v36.3h-4.3v-41.3c-3.3,9.5-8.1,18.2-14.5,26.1c-0.4-1.1-1.2-2.7-2.3-5c7.5-9,13-18.8,16.5-29.4h-15.2
		V397.8z M388.6,382.6h34.3v66.7h-4.6v-7.6h-25.4v7.6h-4.3V382.6z M392.9,386.9v50.8h25.4v-50.8H392.9z M554.9,450.6h-4.6v-25.7
		h-26.1c-0.4,9.2-3.6,18.3-9.6,27.1c-1.3-1.3-2.8-2.3-4.3-3c4.2-5.9,6.8-11.6,7.9-16.8c1.3-5.3,2-13.6,2-25.1v-29.5h65.3V441
		c0.2,6.4-3.2,9.6-10.2,9.6c-3.1,0.2-6.4,0.3-9.9,0.3c0-1.5-0.3-3.2-1-5c2.2,0.2,5.5,0.3,9.9,0.3c4.6,0.2,6.8-1.6,6.6-5.6v-15.8
		h-26.1L554.9,450.6L554.9,450.6z M524.9,407c0,2-0.1,4.6-0.3,7.9c0,2.6,0,4.5,0,5.6h25.7v-17.2h-25.4V407z M524.9,381.9v17.2h25.4
		v-17.2H524.9z M581,381.9h-26.1v17.2H581V381.9z M554.9,403.4v17.2H581v-17.2H554.9z M710.5,374.3l4-2c2.4,3.5,4.8,7.2,7.3,10.9
		l-4,1.6h30v35h-4.6v-4.2h-54.1c-0.2,14.7-3.9,26.7-10.9,36c-0.7-0.7-2-1.6-4-3c4.2-5.9,6.9-11.6,8.2-16.8c1.3-5.3,2-13.2,2-23.8
		v-23.1h32.3c-0.7-1.5-2.1-4.1-4.3-7.6C711.6,376,711,375,710.5,374.3z M689.1,389.2V408v3.3h54.1v-22.1L689.1,389.2L689.1,389.2z
		 M840.1,416.6c-0.4-0.9-1.1-2.2-2-4l-0.3-0.7c7.9-11,14.3-24,19.1-38.9l4.3,1c-2.2,7.3-4.8,14-7.9,20.1v57.5H849v-48.8
		C846.2,408,843.2,412.6,840.1,416.6z M859.2,437.7c-0.2-0.4-1-1.1-2.3-2c-0.7-0.7-1.1-1.1-1.3-1.3c12.5-11.2,21.1-24.6,25.7-40.3
		h-20.1v-4H885v-17.2h4.6v17.2H915v4h-21.5c5.3,16.1,13.6,28.9,25.1,38.6c-0.9,0.7-2,1.9-3.3,3.6c-12.1-11-20.6-25.1-25.4-42.2h-0.3
		v36.3h13.9v4.3h-13.9v16.9H885v-16.8h-13.5v-4.3H885v-36.3C880.4,411.7,871.8,426.3,859.2,437.7z M1002.4,433.4l-0.3-4.3
		c7-1.3,13.2-2.4,18.5-3.3c0,1.3,0,2.6,0,4C1014.8,430.9,1008.7,432.1,1002.4,433.4z M1011.6,386.9l-2,24.8h10.6l2.6-30.4H1004v-4
		h23.1l-2.3,34.3h4.9c0,5.7-0.3,14.6-1,26.7c0,1.1,0,1.9,0,2.3c-0.2,6.2-3.9,9.1-10.9,8.9c-2.2,0.2-5.1,0.3-8.6,0.3
		c0-0.2-0.1-0.7-0.3-1.3c0-1.3-0.2-2.4-0.7-3.3c1.8,0.2,4.7,0.3,8.9,0.3c4.8,0.2,7.3-1.6,7.3-5.6c0.2-3.1,0.4-9.6,0.7-19.5
		c0.2-2.2,0.3-3.8,0.3-5h-20.1l2.3-28.7h4V386.9z M1079.6,404.4c-9.9-6.2-17.7-14.2-23.4-24.1c-5.3,9-13.1,17.4-23.4,25.1
		c-0.2-0.2-0.6-0.7-1-1.3c-0.9-1.3-1.5-2.2-2-2.6c11.9-7.9,20.6-17.7,26.1-29.4l4.6,1c-0.4,0.7-1,1.4-1.6,2.3
		c-0.2,0.7-0.4,1.1-0.7,1.3c6.8,10.6,15,18.4,24.4,23.4c0,0.2-0.2,0.4-0.7,0.7C1080.8,402.5,1080,403.7,1079.6,404.4z M1032.3,443
		h29c3.1-7.7,6.5-17.5,10.2-29.4l4.3,1.3c-2.9,9.2-6.3,18.6-10.2,28.1h14.9v4.3h-48.2L1032.3,443L1032.3,443z M1035.7,416.2l4-1
		c1.3,4.2,3.5,11.3,6.6,21.5l-4.3,1.3C1040.2,431.6,1038.1,424.4,1035.7,416.2z M1039.2,402.4h33v4.3h-33V402.4z M1051.5,413.9
		l4.3-1c0.2,0.9,0.5,2.2,1,4c2,7,3.3,12.3,4,15.8l-4,1C1055.2,426.7,1053.5,420.1,1051.5,413.9z M197.5,373h4.6c0,4.6,0,9.6,0,14.9
		h18.8c0,16.9-0.4,33.6-1.3,49.8c-0.2,7.7-3.9,11.7-10.9,11.9c-2.6,0-5.4,0-8.3,0c0-1.5-0.2-3.2-0.7-5c2.4,0,5.1,0,7.9,0
		c5.1,0.4,7.6-2,7.6-7.3c0-0.9,0-2.3,0-4.3c0.7-18.7,1-32.3,1-40.9h-14.5c0,1.8,0,3.3,0,4.6c-0.4,25.1-5.3,43.2-14.5,54.5
		c-1.3-1.1-2.8-2-4.3-2.6c9.2-11.2,14-28.6,14.2-52.1c0-1.3,0-2.7,0-4.3h-11.6v-4.3h11.9C197.5,382.8,197.5,377.9,197.5,373z
		 M231.2,383.9h29.4v65.7H256v-7.9h-20.1v7.9h-4.6L231.2,383.9L231.2,383.9z M235.8,388.2v49.2h20.1v-49.2H235.8z M348.9,397.8h15.5
		v-14.5c-4.6,0.2-9.2,0.6-13.9,1c-0.2-1.8-0.6-3.2-1-4.3c11-0.7,21.6-1.5,31.7-2.6l1.3,4.3c-1.5,0-3.9,0.2-6.9,0.7
		c-3.1,0.2-5.4,0.4-6.9,0.7V398H384v4h-15.2v11.6l2.3-2c2,1.5,4.7,4.1,8.3,7.6c2,1.8,3.4,3.1,4.3,4l-3.3,3.3
		c-3.7-4.2-7.6-8-11.6-11.6v36.3h-4.3v-41.3c-3.3,9.5-8.1,18.2-14.5,26.1c-0.4-1.1-1.2-2.7-2.3-5c7.5-9,13-18.8,16.5-29.4h-15.2
		V397.8z M389.9,382.6h34.3v66.7h-4.6v-7.6h-25.4v7.6h-4.3V382.6z M394.1,386.9v50.8h25.4v-50.8H394.1z M556.1,450.6h-4.6v-25.7
		h-26.1c-0.4,9.2-3.6,18.3-9.6,27.1c-1.3-1.3-2.8-2.3-4.3-3c4.2-5.9,6.8-11.6,7.9-16.8c1.3-5.3,2-13.6,2-25.1v-29.5h65.3V441
		c0.2,6.4-3.2,9.6-10.2,9.6c-3.1,0.2-6.4,0.3-9.9,0.3c0-1.5-0.3-3.2-1-5c2.2,0.2,5.5,0.3,9.9,0.3c4.6,0.2,6.8-1.6,6.6-5.6v-15.8H556
		L556.1,450.6L556.1,450.6z M526.1,407c0,2-0.1,4.6-0.3,7.9c0,2.6,0,4.5,0,5.6h25.7v-17.2h-25.4V407z M526.1,381.9v17.2h25.4v-17.2
		H526.1z M582.2,381.9h-26.1v17.2h26.1V381.9z M556.1,403.4v17.2h26.1v-17.2H556.1z M711.7,374.3l4-2c2.4,3.5,4.8,7.2,7.3,10.9
		l-4,1.6h30v35h-4.6v-4.2h-54.1c-0.2,14.7-3.9,26.7-10.9,36c-0.7-0.7-2-1.6-4-3c4.2-5.9,6.9-11.6,8.3-16.8c1.3-5.3,2-13.2,2-23.8
		v-23.1H718c-0.7-1.5-2.1-4.1-4.3-7.6C712.8,376,712.2,375,711.7,374.3z M690.2,389.2V408v3.3h54.1v-22.1L690.2,389.2L690.2,389.2z
		 M841.2,416.6c-0.4-0.9-1.1-2.2-2-4l-0.3-0.7c7.9-11,14.3-24,19.1-38.9l4.3,1c-2.2,7.3-4.8,14-7.9,20.1v57.5h-4.3v-48.8
		C847.4,408,844.4,412.6,841.2,416.6z M860.4,437.7c-0.2-0.4-1-1.1-2.3-2c-0.7-0.7-1.1-1.1-1.3-1.3c12.5-11.2,21.1-24.6,25.7-40.3
		h-20.1v-4h23.8v-17.2h4.6v17.2h25.4v4h-21.5c5.3,16.1,13.6,28.9,25.1,38.6c-0.9,0.7-2,1.9-3.3,3.6c-12.1-11-20.6-25.1-25.4-42.2
		h-0.3v36.3h13.9v4.3h-13.9v16.9h-4.6v-16.8h-13.5v-4.3h13.5v-36.3C881.6,411.7,873,426.3,860.4,437.7z M1003.5,433.4l-0.3-4.3
		c7-1.3,13.2-2.4,18.5-3.3c0,1.3,0,2.6,0,4C1016,430.9,1009.9,432.1,1003.5,433.4z M1012.8,386.9l-2,24.8h10.6l2.6-30.4h-18.8v-4
		h23.1l-2.3,34.3h5c0,5.7-0.3,14.6-1,26.7c0,1.1,0,1.9,0,2.3c-0.2,6.2-3.9,9.1-10.9,8.9c-2.2,0.2-5.1,0.3-8.6,0.3
		c0-0.2-0.1-0.7-0.3-1.3c0-1.3-0.2-2.4-0.7-3.3c1.8,0.2,4.7,0.3,8.9,0.3c4.8,0.2,7.3-1.6,7.3-5.6c0.2-3.1,0.4-9.6,0.7-19.5
		c0.2-2.2,0.3-3.8,0.3-5h-20.1l2.3-28.7h3.9V386.9z M1080.8,404.4c-9.9-6.2-17.7-14.2-23.4-24.1c-5.3,9-13.1,17.4-23.4,25.1
		c-0.2-0.2-0.6-0.7-1-1.3c-0.9-1.3-1.5-2.2-2-2.6c11.9-7.9,20.6-17.7,26.1-29.4l4.6,1c-0.4,0.7-1,1.4-1.7,2.3
		c-0.2,0.7-0.4,1.1-0.7,1.3c6.8,10.6,15,18.4,24.4,23.4c0,0.2-0.2,0.4-0.7,0.7C1082,402.5,1081.2,403.7,1080.8,404.4z M1033.6,443
		h29c3.1-7.7,6.5-17.5,10.2-29.4l4.3,1.3c-2.9,9.2-6.3,18.6-10.2,28.1h14.9v4.3h-48.2L1033.6,443L1033.6,443z M1036.8,416.2l4-1
		c1.3,4.2,3.5,11.3,6.6,21.5l-4.3,1.3C1041.3,431.6,1039.2,424.4,1036.8,416.2z M1040.5,402.4h33v4.3h-33V402.4z M1052.7,413.9
		l4.3-1c0.2,0.9,0.5,2.2,1,4c2,7,3.3,12.3,4,15.8l-4,1C1056.5,426.7,1054.7,420.1,1052.7,413.9z M198.8,373h4.6c0,4.6,0,9.6,0,14.9
		h18.8c0,16.9-0.4,33.6-1.3,49.8c-0.2,7.7-3.9,11.7-10.9,11.9c-2.6,0-5.4,0-8.3,0c0-1.5-0.2-3.2-0.7-5c2.4,0,5.1,0,7.9,0
		c5.1,0.4,7.6-2,7.6-7.3c0-0.9,0-2.3,0-4.3c0.7-18.7,1-32.3,1-40.9h-14.5c0,1.8,0,3.3,0,4.6c-0.4,25.1-5.3,43.2-14.5,54.5
		c-1.3-1.1-2.8-2-4.3-2.6c9.2-11.2,14-28.6,14.2-52.1c0-1.3,0-2.7,0-4.3h-11.6v-4.3h11.9C198.8,382.8,198.8,377.9,198.8,373z
		 M232.4,383.9h29.4v65.7h-4.7v-7.9H237v7.9h-4.6L232.4,383.9L232.4,383.9z M237,388.2v49.2h20.1v-49.2H237z M350.1,397.8h15.5
		v-14.5c-4.6,0.2-9.2,0.6-13.9,1c-0.2-1.8-0.6-3.2-1-4.3c11-0.7,21.6-1.5,31.7-2.6l1.3,4.3c-1.5,0-3.9,0.2-6.9,0.7
		c-3.1,0.2-5.4,0.4-6.9,0.7V398h15.2v4H370v11.6l2.3-2c2,1.5,4.7,4.1,8.3,7.6c2,1.8,3.4,3.1,4.3,4l-3.3,3.3
		c-3.7-4.2-7.6-8-11.6-11.6v36.3h-4.3v-41.3c-3.3,9.5-8.1,18.2-14.5,26.1c-0.4-1.1-1.2-2.7-2.3-5c7.5-9,13-18.8,16.5-29.4h-15.2
		V397.8z M391,382.6h34.3v66.7h-4.6v-7.6h-25.4v7.6H391V382.6z M395.4,386.9v50.8h25.4v-50.8H395.4z M557.2,450.6h-4.6v-25.7h-26.1
		c-0.4,9.2-3.6,18.3-9.6,27.1c-1.3-1.3-2.8-2.3-4.3-3c4.2-5.9,6.8-11.6,7.9-16.8c1.3-5.3,2-13.6,2-25.1v-29.5h65.3V441
		c0.2,6.4-3.2,9.6-10.2,9.6c-3.1,0.2-6.4,0.3-9.9,0.3c0-1.5-0.3-3.2-1-5c2.2,0.2,5.5,0.3,9.9,0.3c4.6,0.2,6.8-1.6,6.6-5.6v-15.8
		h-26.1L557.2,450.6L557.2,450.6z M527.2,407c0,2-0.1,4.6-0.3,7.9c0,2.6,0,4.5,0,5.6h25.7v-17.2h-25.4V407z M527.2,381.9v17.2h25.4
		v-17.2H527.2z M583.4,381.9h-26.1v17.2h26.1V381.9z M557.2,403.4v17.2h26.1v-17.2H557.2z M712.9,374.3l4-2
		c2.4,3.5,4.8,7.2,7.3,10.9l-4,1.6h30v35h-4.6v-4.2h-54.1c-0.2,14.7-3.9,26.7-10.9,36c-0.7-0.7-2-1.6-4-3c4.2-5.9,6.9-11.6,8.2-16.8
		c1.3-5.3,2-13.2,2-23.8v-23.1h32.4c-0.7-1.5-2.1-4.1-4.3-7.6C714,376,713.4,375,712.9,374.3z M691.5,389.2V408v3.3h54.1v-22.1
		L691.5,389.2L691.5,389.2z M842.5,416.6c-0.4-0.9-1.1-2.2-2-4l-0.3-0.7c7.9-11,14.3-24,19.1-38.9l4.3,1c-2.2,7.3-4.8,14-7.9,20.1
		v57.5h-4.3v-48.8C848.6,408,845.6,412.6,842.5,416.6z M861.6,437.7c-0.2-0.4-1-1.1-2.3-2c-0.7-0.7-1.1-1.1-1.3-1.3
		c12.5-11.2,21.1-24.6,25.7-40.3h-20.1v-4h23.8v-17.2h4.6v17.2h25.4v4h-21.5c5.3,16.1,13.6,28.9,25.1,38.6c-0.9,0.7-2,1.9-3.3,3.6
		c-12.1-11-20.6-25.1-25.4-42.2H892v36.3h13.9v4.3H892v16.9h-4.6v-16.8h-13.5v-4.3h13.5v-36.3C882.8,411.7,874.2,426.3,861.6,437.7z
		 M1004.7,433.4l-0.3-4.3c7-1.3,13.2-2.4,18.5-3.3c0,1.3,0,2.6,0,4C1017.2,430.9,1011.1,432.1,1004.7,433.4z M1014,386.9l-2,24.8
		h10.6l2.6-30.4h-18.8v-4h23.1l-2.3,34.3h5c0,5.7-0.3,14.6-1,26.7c0,1.1,0,1.9,0,2.3c-0.2,6.2-3.9,9.1-10.9,8.9
		c-2.2,0.2-5.1,0.3-8.6,0.3c0-0.2-0.1-0.7-0.3-1.3c0-1.3-0.2-2.4-0.7-3.3c1.8,0.2,4.7,0.3,8.9,0.3c4.8,0.2,7.3-1.6,7.3-5.6
		c0.2-3.1,0.4-9.6,0.7-19.5c0.2-2.2,0.3-3.8,0.3-5h-20.1l2.3-28.7h3.9V386.9z M1082,404.4c-9.9-6.2-17.7-14.2-23.4-24.1
		c-5.3,9-13.1,17.4-23.4,25.1c-0.2-0.2-0.6-0.7-1-1.3c-0.9-1.3-1.5-2.2-2-2.6c11.9-7.9,20.6-17.7,26.1-29.4l4.6,1
		c-0.4,0.7-1,1.4-1.7,2.3c-0.2,0.7-0.4,1.1-0.7,1.3c6.8,10.6,15,18.4,24.4,23.4c0,0.2-0.2,0.4-0.7,0.7
		C1083.2,402.5,1082.3,403.7,1082,404.4z M1034.8,443h29c3.1-7.7,6.5-17.5,10.2-29.4l4.3,1.3c-2.9,9.2-6.3,18.6-10.2,28.1h14.9v4.3
		h-48.2L1034.8,443L1034.8,443z M1038.1,416.2l4-1c1.3,4.2,3.5,11.3,6.6,21.5l-4.3,1.3C1042.6,431.6,1040.5,424.4,1038.1,416.2z
		 M1041.7,402.4h33v4.3h-33V402.4z M1053.8,413.9l4.3-1c0.2,0.9,0.5,2.2,1,4c2,7,3.3,12.3,4,15.8l-4,1
		C1057.7,426.7,1055.8,420.1,1053.8,413.9z M213.2,525.1l-5.3-12.7H188l-5.5,12.7h-3.2l16.8-39.6h3.2l17.2,39.6H213.2z M189,509.8
		h17.6l-8.7-21h-0.2L189,509.8z M253.3,525.1h-2.8v-5.5c-2,4.1-5.5,6.1-10.7,6.1c-7.3-0.4-11-5.3-11.3-14.7
		c0.3-9.9,4.2-15,11.9-15.4c4.6,0.1,8,2.2,10.1,6.3v-16.4h2.8V525.1z M250.5,512.4v-4.6c-0.7-5.5-3.8-8.8-9.5-9.9
		c-6.2,0.3-9.4,4.6-9.7,13.1c0,8.2,3.2,12.3,9.7,12.3C247.1,523.2,250.2,519.5,250.5,512.4z M294,525.1h-2.8v-5.5
		c-2,4.1-5.5,6.1-10.7,6.1c-7.3-0.4-11-5.3-11.3-14.7c0.3-9.9,4.2-15,11.9-15.4c4.6,0.1,8,2.2,10.1,6.3v-16.4h2.8V525.1z
		 M291.2,512.4v-4.6c-0.7-5.5-3.8-8.8-9.5-9.9c-6.2,0.3-9.4,4.6-9.7,13.1c0,8.2,3.2,12.3,9.7,12.3
		C287.7,523.2,290.9,519.5,291.2,512.4z M335,506.7v18.4h-2.8v-18c0.1-6.2-2.6-9.2-8.1-9.1c-5.5,0.4-8.8,3.5-9.7,9.3v17.8h-2.8
		v-28.7h2.8v5.9c2.2-4.4,5.7-6.6,10.5-6.7C331.8,495.5,335.2,499.2,335,506.7z M374.3,516.4l3,0.8c-1.6,5.7-5.8,8.5-12.7,8.5
		c-9-0.4-13.6-5.3-13.9-14.7c0.4-9.8,5-14.9,13.7-15.4c8.4,0.3,12.8,5.5,13.1,15.6c0,0.3,0,0.5,0,0.6h-23.6
		c0.3,7.4,3.8,11.2,10.5,11.5C370,523.3,373.3,521,374.3,516.4z M354.1,509.4h20.2c-0.1-7.4-3.4-11.2-9.9-11.3
		C357.9,498.6,354.5,502.3,354.1,509.4z M419.3,525.1h-3.2l-6.3-26.3h-0.2l-6.9,26.3h-3l-9.9-28.9h3l8.3,26.7h0.2l6.9-26.7h3
		l6.5,26.7h0.2l8.5-26.7h3L419.3,525.1z M465.2,516.4l3,0.8c-1.6,5.7-5.8,8.5-12.7,8.5c-9-0.4-13.6-5.3-13.9-14.7
		c0.4-9.8,5-14.9,13.7-15.4c8.4,0.3,12.8,5.5,13.1,15.6c0,0.3,0,0.5,0,0.6h-23.6c0.3,7.4,3.8,11.2,10.5,11.5
		C460.8,523.3,464.1,521,465.2,516.4z M445,509.4h20.2c-0.1-7.4-3.4-11.2-9.9-11.3C448.8,498.6,445.4,502.3,445,509.4z M494.2,498.6
		c-4.6,0.4-7.1,4-7.3,10.9v15.6h-2.8v-28.7h2.8v5.3h0.2c1.3-3.8,3.8-5.9,7.5-6.1c2-0.1,3.8,0.4,5.3,1.6l-1.4,2.8
		C497.5,499,496,498.6,494.2,498.6z M568.8,485.7v23c0.1,11.5-5.1,17.2-15.8,17c-10.4,0.1-15.6-5.5-15.4-17v-23h3v23
		c-0.1,9.8,4,14.7,12.5,14.7c8.7,0,13-4.9,12.9-14.7v-23H568.8z M597,498.2c-5.1,0-7.8,1.9-7.9,5.5c-0.5,2.8,2.6,4.7,9.3,5.7
		c7.4,1.2,11,3.9,10.7,8.1c-0.3,5.3-4.2,8-11.7,8.1c-6.6,0.1-10.7-2.7-12.3-8.5l2.8-0.8c0.9,4.8,4.1,7.1,9.5,6.9
		c5.5,0,8.4-1.8,8.7-5.5c0.4-3-2.5-5-8.7-5.9c-7.8-1.2-11.5-3.9-11.1-8.1c0.4-5.1,3.8-7.9,10.3-8.1c6.3,0,10,2.5,11.1,7.5l-2.8,1
		C604,500.1,601.3,498.2,597,498.2z M647.6,516.4l3,0.8c-1.6,5.7-5.8,8.5-12.7,8.5c-9-0.4-13.6-5.3-13.9-14.7
		c0.4-9.8,4.9-14.9,13.7-15.4c8.4,0.3,12.8,5.5,13.1,15.6c0,0.3,0,0.5,0,0.6h-23.6c0.3,7.4,3.8,11.2,10.5,11.5
		C643.2,523.3,646.5,521,647.6,516.4z M627.4,509.4h20.2c-0.1-7.4-3.4-11.2-9.9-11.3C631.2,498.6,627.8,502.3,627.4,509.4z
		 M676.6,498.6c-4.6,0.4-7.1,4-7.3,10.9v15.6h-2.8v-28.7h2.8v5.3h0.2c1.3-3.8,3.8-5.9,7.5-6.1c2-0.1,3.8,0.4,5.3,1.6l-1.4,2.8
		C679.9,499,678.4,498.6,676.6,498.6z M722.9,522.9h26.3v2.2h-29.3v-39.4h28.3v2.6h-25.3v15.2h24v2.6h-24V522.9z M778,510.6
		l11.7,14.5h-3.6l-9.7-13.1l-10.1,13.1h-3.6l11.9-14.5l-10.7-14.5h3.4l9.1,13.1l9.1-13.1h3.4L778,510.6z M806.6,535.2h-3v-38.8h3
		v5.3c1.6-4.1,4.8-6.1,9.7-6.1c7.8,0.5,11.9,5.7,12.3,15.4c-0.3,9.4-4,14.3-11.3,14.7c-5.3,0-8.8-1.9-10.7-5.7V535.2z M806.6,508.1
		v4.6c0.1,7.1,3.3,10.7,9.5,10.7c6.3,0,9.5-4,9.5-12.1c-0.1-8.4-3.5-12.8-10.1-13.1C810.1,498.6,807.1,501.9,806.6,508.1z
		 M866.3,516.4l3,0.8c-1.6,5.7-5.8,8.5-12.7,8.5c-9-0.4-13.6-5.3-13.9-14.7c0.4-9.8,4.9-14.9,13.7-15.4c8.4,0.3,12.8,5.5,13.1,15.6
		c0,0.3,0,0.5,0,0.6h-23.6c0.3,7.4,3.8,11.2,10.5,11.5C861.9,523.3,865.2,521,866.3,516.4z M846.1,509.4h20.2
		c-0.1-7.4-3.4-11.2-9.9-11.3C849.9,498.6,846.5,502.3,846.1,509.4z M895.3,498.6c-4.6,0.4-7.1,4-7.3,10.9v15.6h-2.8v-28.7h2.8v5.3
		h0.2c1.3-3.8,3.8-5.9,7.5-6.1c2-0.1,3.8,0.4,5.3,1.6l-1.4,2.8C898.6,499,897.1,498.6,895.3,498.6z M913.6,485.5h3v4.4h-3V485.5z
		 M913.6,496.2h3v28.9h-3V496.2z M955.6,516.4l3,0.8c-1.6,5.7-5.8,8.5-12.7,8.5c-9-0.4-13.6-5.3-13.9-14.7
		c0.4-9.8,4.9-14.9,13.7-15.4c8.4,0.3,12.8,5.5,13.1,15.6c0,0.3,0,0.5,0,0.6h-23.6c0.3,7.4,3.8,11.2,10.5,11.5
		C951.3,523.3,954.6,521,955.6,516.4z M935.4,509.4h20.2c-0.1-7.4-3.4-11.2-9.9-11.3C939.3,498.6,935.8,502.3,935.4,509.4z
		 M998.1,506.7v18.4h-2.8v-18c0.1-6.2-2.6-9.2-8.1-9.1c-5.5,0.4-8.8,3.5-9.7,9.3v17.8h-2.8v-28.7h2.8v5.9c2.2-4.4,5.7-6.6,10.5-6.7
		C994.8,495.5,998.2,499.2,998.1,506.7z M1027.1,498.2c-6.5,0.1-9.8,4.4-9.9,12.7c0.1,8.1,3.4,12.2,9.9,12.5
		c5.3-0.1,8.2-2.8,8.9-8.1l3,0.8c-1.2,6.6-5.2,9.8-12.1,9.7c-8.4-0.3-12.7-5.2-12.9-14.8c0.4-9.8,4.6-14.9,12.7-15.2
		c6.2,0.3,10.2,3.2,11.9,8.7l-3,0.8C1034.3,500.7,1031.4,498.4,1027.1,498.2z M1075.3,516.4l3,0.8c-1.6,5.7-5.8,8.5-12.7,8.5
		c-9-0.4-13.6-5.3-13.9-14.7c0.4-9.8,4.9-14.9,13.7-15.4c8.4,0.3,12.8,5.5,13.1,15.6c0,0.3,0,0.5,0,0.6h-23.6
		c0.3,7.4,3.8,11.2,10.5,11.5C1070.9,523.3,1074.2,521,1075.3,516.4z M1055.1,509.4h20.2c-0.1-7.4-3.4-11.2-9.9-11.3
		C1058.9,498.6,1055.5,502.3,1055.1,509.4z M450.6,295.5L337.4,74.2L230.4,287l-0.3,0.8c-1.7,7.1-7,7.6-8.6,7.6h-43.1l19.7-40.1
		L336.9-22.1l162.5,317.6H450.6z M653.6,295.5c-17.1-0.3-33.5-3.7-48.7-10.1c-16.4-6.8-31.2-16.6-43.8-29.2
		c-12.1-12-21.9-26.9-29.6-45.6c-6.9-16.5-10.3-35.1-10.3-56.9V-8.5h42.2l0.8,8.5v149c0,12.5,1.9,25.6,6.1,38.9
		c3.5,11.2,9.3,21.9,17.5,31.8c7.4,8.9,16.9,16.1,28.2,21.2c11.4,5.1,25,7.7,40.4,7.7c18.8-0.8,35.1-5.7,48.2-14.6
		c12.9-8.8,22.8-21.3,29.6-37.3c7.4-17.4,11-37.3,11-59V0l0.1-0.5l0.3-8.1l8.3,0.2h38.3v148c0,17.3-3.1,35.5-9.3,57
		c-4.9,16.8-13.4,33.3-25.3,48.9c-10.9,14.5-25.1,26.2-42.2,35c-16.6,8.6-36.4,13.7-58.5,15l-2.8,0.2L653.6,295.5z M859.2,291.5
		v-300h233v43h-191v80h191v42h-191v93h191v42H859.2z"/>
</g>
</svg>
